<?xml version="1.0" encoding="UTF-8"?>
<svg version="1.1" viewBox="0 0 2000 2000" width="500" height="500" xmlns="http://www.w3.org/2000/svg">
<path transform="translate(571,605)" d="m0 0h31l42 2 43 4 55 8 42 8 40 9 60 15 59 16 80 22 54 14 38 9 28 6 41 8 46 7 59 6 13 1 42 1 40-1 27-2 49-6 43-8 40-10 24-7 36-12 29-11 21-9 33-15 22-11 20-11 3-2h3l-2 4-11 12-9 9-7 8-15 15-8 7-7 7-8 7h-2v2l-11 9-16 13-18 13-16 11-21 13-16 9-23 12-24 11-26 10-27 9-39 10-39 7-38 4-29 2h-58l-46-3-30-3-56-8-52-10-37-8-30-7-64-16-45-12-148-40-42-11-45-11-36-8-38-8-37-7-46-7-44-5-37-3-21-1h-62l-35 2-28 3-12 2h-6l3-3 30-13 23-9 25-9 21-7 27-8 28-7 29-6 36-6 41-4z" fill="#027CC1"/>
<path transform="translate(962,261)" d="m0 0h76l3 5 4 43 1 6 31 4 29 4h5l1-6 14-38 4-5h7l38 10 28 8 3 3-1 12-4 24-3 13 1 4 19 7 19 8 18 8h4l16-24 12-16 2-2 6 1 18 10 24 14 15 9 6 5-1 7-18 38-2 5 15 11 12 9 14 11 9 7 4-1 10-9 11-9 12-10 5-3 6 2 49 49 1 7-6 9-9 10-9 11-8 9 6 9 8 9 12 16 12 17 6-1 29-14 10-4h7l7 10 15 26 13 23 2 5v6l-10 3-26 5-37 4h-12l-6-9-14-23-13-19-14-19-8-10-11-13-9-11-12-12-7-8-9-9-8-7-12-11-11-9-13-11-19-14-16-11-19-12-24-14-23-12-34-15-27-10-28-9-30-8-36-7-38-5-25-2h-60l-24 2-44 6-38 8-35 10-29 10-31 13-33 16-23 13-21 13-16 11-18 13-16 13-15 13-12 11-8 7-18 18-7 8-9 10-9 11-11 13-3 5-9 2-32 2 6-8 13-18 13-16 6-8-1-4-10-11-18-22-3-5 2-6 50-50 4-1 10 6 10 9 11 9 9 8 5-1 14-12 13-10 17-12 4-3-11-23-11-24 1-4 9-6 24-14 28-16 3-2 6 1 8 10 19 28 2 3 6-1 27-12 27-10 1-2-5-24-3-19v-8l3-3 24-7 41-11h9l5 10 13 37 1 2 16-2 44-5h4l4-45 2-8z" fill="#027CC1"/>
<path transform="translate(510,1249)" d="m0 0h36l5 5 9 12 12 14 18 20 26 26 8 7 14 12 16 13 19 14 12 8 20 13 21 12 27 14 21 10 27 11 36 12 29 8 34 7 42 6 24 2h66l26-2 42-6 33-7 37-10 28-10 20-8 18-8 25-12 22-12 23-14 12-8 14-10 21-16 13-11 14-12 16-15 17-17 1-2h2l2-4 12-13 9-11 11-14 3-4h37l-4 6-13 18-13 16-7 9 6 8 13 15 9 11 4 6-1 7-51 51-6-1-13-10-14-12-8-7-2-2-5 1-14 12-13 10-17 12-4 4 19 40 2 5-1 5-9 7-25 14-21 12-8 5h-5l-8-9-21-31-1-3-21 9-27 11-13 5 5 26 3 25-1 3-10 4-27 7-30 8-7 1-4-4-5-12-12-34-23 3-41 5-5 48-2 6-4 1h-71l-4-2-2-10-4-43-52-6-12-2-16 44-3 5-5 1-35-9-34-9-3-4v-8l5-29 3-16-5-1-16-6-21-9-16-7-4 1-12 19-14 19-3 3-7-1-14-8-19-11-24-14-6-5 3-9 16-34 3-5-1-3-11-7-13-10-14-11-11-9-4 1-11 10-11 9-12 10-4 2-5-1-15-14-31-31-6-8 1-5 8-10 12-14 9-11 2-2-1-4-14-17-13-18-8-11z" fill="#027CC1"/>
<path transform="translate(706,570)" d="m0 0h28l36 1 51 4 45 5 47 7 47 9 48 11 69 18 28 7 40 9 55 11 55 9 57 7 36 3 33 2h85l47-3 50-7 31-6 28-7 30-9 22-8 2 1-9 6-31 15-37 15-36 12-37 10-38 8-24 4-29 4-32 3-19 1h-81l-34-2-42-5-31-4-47-8-39-8-43-10-28-7-59-16-42-12-58-16-27-7-28-7-32-7-43-8-51-7-38-3-18-1-39-1-11-1 2-2 28-4 40-4 13-1z" fill="#0398F3"/>
<path transform="translate(1174,969)" d="m0 0h23l1 1v159l-2 1h-56l-6-2-5-5-5 1-5 4-9 2h-30l-7-4-3-3-5 1-5 4-6 2h-144l-5-2-5-5-5 1-5 4-8 2h-23l-12-3-8-6-4-5-6 1-7 2h-17l-10-3-10-8-6-10-4-13-1-10v-10l2-12 6-12 8-7 10-4 9-1h44l1 69 2 6 10 2h17l1-21v-23l1-22h22l1 1 1 63 1 1 12 1h23l-2-8-1-10v-32l3-13 5-8 9-8 11-4h24l9 3 9 6 6 10 3 7 1 8v34l-2 10-2 5h36l1-66h22l1 1 1 61 1 3 14 1h18l1-7 1-59h22l1 1 1 57 1 7 6 1 29 1zm-197 76-8 4-3 8-1 27 1 11 4 8 6 3 9 1 8-4 4-4 2-7v-32l-3-9-5-5-3-1zm-161 6-10 2-5 3-3 8v19l3 7 5 5 3 1h10l6-4 3-3 2-9v-27l-2-2z" fill="#027CC2"/>
<path transform="translate(1576,969)" d="m0 0h23l1 69 13-8 13-5 5-1h22l11 3 8 6 6 8 4 11 2 25 1 29 97 1-1-49-3-8-3-3-7-2h-10l-8 3-4 7-1 4-1 20-6 1h-17v-30l4-11 6-8 9-6 8-3 9-1h11l13 2 10 5 8 9 4 8 1 3 1 17 1 39 9 3v22l-1 1h-273v14l-2 12-6 12-7 7-9 4-13 2h-28l-1-1v-22l29-1 9-3 3-7 2-16-21-1-12-3-8-5-5-5-4-7-2-9v-48l3-12 6-9 8-6 8-3 7-1h11l11 2 8 4 8 9 4 11 1 7 1 51h33zm-75 76-8 3-3 6-1 4v40l3 5 5 3 7 1h13l1-1v-47l-3-9-4-4zm128 2-12 3-17 8-1 2v46l1 1h60l1-1v-40l-3-10-4-6-6-3z" fill="#027CC1"/>
<path transform="translate(999,1246)" d="m0 0 5 3 57 57 9 12 8 16 4 18v21l-4 17-8 16-10 13-10 9-13 8-19 7-13 2h-11l-16-3-15-6-12-7-12-11-8-10-8-15-4-13-2-14v-9l4-20 4-10 6-11 9-11zm0 25-8 7-41 41-9 14-4 10-2 11v18l4 16 8 14 5 6h2l2 4h3l-7-17-3-11v-18l4-15 5-10 9-12 45-45-2-4-8-9z" fill="#0398F3"/>
<path transform="translate(423,969)" d="m0 0h23l1 3v126l1 7 24 1 68 1-1-50-3-7-5-4-4-1h-12l-6 3h-2l-2 5-2 8-1 18h-22l-1-1v-24l4-13 5-8 7-6 8-4 12-2h12l12 2 8 4 8 7 7 14 1 10 1 42 2 4 2 1 24 1h8l1-65 1-1h22l1 1 1 64 11 1 25 1v-138h23l1 1v159l-2 1h-58l-5-2-4-5-6 1-6 5-5 1h-154l-8-2-7-4-6-9-2-7z" fill="#027CC2"/>
<path transform="translate(382,707)" d="m0 0h23l27 4h5l2-2 30 2-1 6-9 27-8 30-5 21-6 34-4 35-1 1h-29v-12l4-29 3-19v-5l-20-7-24-9-6-5 3-15 15-55z" fill="#027CC1"/>
<path transform="translate(253,1029)" d="m0 0h45l1 68 2 7 3 1 33 2v-72h22l2 2v91l-2 2h-55l-9-2-8-4-5-6-1-2-6 1-8 2h-17l-10-3-10-8-6-10-4-13v-27l4-13 4-6 9-6 7-3zm10 22-12 2-5 3-3 8v18l3 8 5 5 3 1h10l6-4 3-3 1-4 1-33-2-1z" fill="#027CC2"/>
<path transform="translate(1391,1041)" d="m0 0h19l3 1 1 86-2 2h-102l-9-2-6-4-5-6-1-2-1-10v-54l2-1h21l1 6v40l1 8 9 1 68 1v-65z" fill="#027CC2"/>
<path transform="translate(387,1045)" d="m0 0h23v96l-3 18-4 8-4 5-9 6-11 3-7 1h-19l-1-1v-15l-1-1-8-1v-18h17l1 1v12l17-3 5-4 3-13z" fill="#027CC1"/>
<path transform="translate(703,969)" d="m0 0h22l1 1v159l-3 1h-19l-1-1-1-85z" fill="#027CC1"/>
<path transform="translate(1429,969)" d="m0 0h23l1 4v156l-2 1h-20l-2-1z" fill="#027CC1"/>
<path transform="translate(1215,969)" d="m0 0h23l1 4v155l-3 2h-19l-2-2z" fill="#027DC2"/>
<path transform="translate(1585,805)" d="m0 0h2l5 35 2 18v6l-1 1h-29l-2-16-3-30 19-10z" fill="#027CC2"/>
<path transform="translate(458,552)" d="m0 0 9 2 30 14 9 4v2l-51 7-10 2h-7l7-12 11-18z" fill="#027DC3"/>
<path transform="translate(1499,1249)" d="m0 0h55l-2 5-8 13-5 1-14-5-25-12z" fill="#027CC2"/>
<path transform="translate(446,1249)" d="m0 0h55l-1 2-26 12-9 4-8 1-6-9-5-8z" fill="#027CC2"/>
<path transform="translate(1058,999)" d="m0 0h18l1 1v16l-1 1h-14l-5-2v-15z" fill="#027FC6"/>
<path transform="translate(279,988)" d="m0 0 6 1v17l-1 1h-17l-1-1v-17z" fill="#027DC4"/>
<path transform="translate(1331 1e3)" d="m0 0h18v18h-18l-1-1v-16z" fill="#027DC3"/>
<path transform="translate(1355 1e3)" d="m0 0h18l1 1v17h-19z" fill="#027DC3"/>
<path transform="translate(242,988)" d="m0 0h12l6 1v17l-1 1h-17z" fill="#027EC5"/>
<path transform="translate(797,988)" d="m0 0h11l7 1v17l-1 1h-16l-1-1z" fill="#027EC6"/>
<path transform="translate(900,1148)" d="m0 0h17l1 1v16l-1 1h-16l-2-5v-12z" fill="#027DC3"/>
<path transform="translate(875,1148)" d="m0 0h17l1 1 1 15-1 2h-17l-1-1z" fill="#027EC5"/>
<path transform="translate(517,1148)" d="m0 0h18l1 3-1 14-1 1h-16l-2-3z" fill="#027DC3"/>
<path transform="translate(837,988)" d="m0 0 3 1-1 18h-17l-1-1v-17z" fill="#027CC1"/>
<path transform="translate(1114,998)" d="m0 0 9 1v16l-1 1h-17l-1-1v-16z" fill="#027DC4"/>
<path transform="translate(985,983)" d="m0 0h18v17l-1 1h-17z" fill="#027DC3"/>
<path transform="translate(319,1146)" d="m0 0h16l1 1v16l-1 1h-15l-2-1v-16z" fill="#027FC7"/>
<path transform="translate(593,998)" d="m0 0h14l3 1v17h-17l-1-1v-16z" fill="#027EC4"/>
<path transform="translate(1139,998)" d="m0 0 8 1 1 5-1 12h-17l-1-1v-16z" fill="#027CC2"/>
<path transform="translate(961,983)" d="m0 0h17v17l-1 1h-15l-2-1v-15z" fill="#027EC4"/>
<path transform="translate(1755,982)" d="m0 0h17l1 1v16h-19z" fill="#027DC3"/>
<path transform="translate(623,998)" d="m0 0h7l4 1v17h-16l-1-1v-16z" fill="#027CC2"/>
<path transform="translate(632,575)" d="m0 0h8l2 1v2h-2v5h-36l-11-1 2-2 28-4z" fill="#0280C9"/>
<path transform="translate(1674,633)" d="m0 0 2 1-9 6-25 12-4-1 1-1-2-1-1 3-7 1-4-1v-3l27-8z" fill="#0280C9"/>
<path transform="translate(1635,774)" d="m0 0 2 1-1 5-9 6-11 4-3-1 10-7z" fill="#0281C9"/>
<path transform="translate(1618,651)" d="m0 0h5l1 4h-2l-1 2h-4l-4 1-5-1-1 2-2-4z" fill="#027FC6"/>
</svg>
